<svg width="184" height="181" viewBox="0 0 184 181" fill="none" xmlns="http://www.w3.org/2000/svg">
<g clip-path="url(#clip0_58_5845)">
<path d="M0 0H102.2H134.12H183.828V26.047V30.6936V181H100.553H70.8767H0V116.197V94.316V0Z" fill="white"></path>
<path d="M0 94.3164C0.677414 94.4661 1.47435 94.6164 2.11378 94.8587C2.86148 100.178 4.28387 108.216 6.03905 113.353C9.82247 124.424 16.5326 136.806 25.3207 144.673L25.9404 143.939C25.1813 142.805 23.3115 140.516 22.8643 139.349C20.5357 133.276 19.0669 126.804 16.8417 120.664C16.5445 119.844 16.6329 118.132 17.3884 117.574C17.8525 117.521 18.3323 117.416 18.731 117.715C20.6932 119.187 25.4674 131.161 27.3082 134.068C28.8854 136.559 32.7166 140.234 34.8243 142.532C36.4236 144.276 37.8757 146.179 39.5662 147.835C40.5778 148.823 41.6638 149.73 42.8146 150.551C44.3332 151.613 46.1299 152.701 47.7041 153.732C49.7052 155.042 52.2012 156.977 54.2609 158.024C58.3702 160.113 63.2738 161.817 67.6224 163.367C69.8372 164.156 73.4749 165.516 75.6576 165.953C78.8015 166.582 82.4803 166.898 85.7323 167.367C89.2537 167.875 94.0237 168.932 97.4298 168.836C100.402 168.753 104.749 167.858 107.811 167.384C110.434 166.979 113.862 166.678 116.346 166.175C121.599 165.113 127.567 162.033 132.561 159.924C133.778 159.41 138.348 157.652 139.296 157C143.27 154.263 147.992 151.18 151.646 148.039C152.278 147.496 153.609 145.154 154.208 144.361C155.861 142.175 157.726 139.618 160.566 139.106C161.347 139.337 162.175 139.6 162.955 139.813C163.271 141.215 163.31 141.644 162.548 142.903C161.636 144.411 159.986 145.713 159.046 147.116C157.021 150.105 154.625 152.657 152.04 155.168C150.068 157.085 147.659 159.89 145.38 161.397C141.159 164.186 136.713 167.021 132.39 169.677C130.647 170.748 129.015 171.855 127.248 172.853C123.996 174.414 120.319 175.201 116.959 176.503C112.299 178.211 108.012 180.154 102.992 180.431C102.362 180.467 101.037 180.61 100.553 181H70.8767H0V116.198V94.3164Z" fill="#303030"></path>
<path d="M0 116.198C1.78068 118.159 3.36209 129.784 5.18341 133.094C7.3422 137.344 10.2276 141.249 12.9605 145.177C14.0289 146.712 15.5364 149.788 16.7147 151.046C22.6474 157.38 30.3693 162.498 37.1999 167.863C38.8365 169.148 41.8994 170.003 43.7175 171.158C48.2743 173.629 52.9013 176.152 57.6469 178.223C60.2104 179.342 69.0927 179.648 70.8767 181H0V116.198Z" fill="white"></path>
<path d="M25.94 143.938C26.6835 144.902 27.2848 145.934 27.9183 146.972C26.7881 146.113 26.3089 145.69 25.3203 144.672L25.94 143.938Z" fill="#303030"></path>
<path d="M156.842 134.29C157.706 133.48 162.101 129.44 162.401 134.059C162.43 134.5 160.034 136.144 159.452 136.749C154.302 142.102 148.764 146.911 143.032 151.622C138.654 155.058 130.891 156.657 125.777 158.833C118.816 161.793 111.868 162.415 104.472 163.398C102.125 163.689 98.4696 164.486 96.1552 164.494C92.8445 164.506 88.7121 163.085 85.3295 162.864C83.1057 162.446 80.5112 162.228 78.3776 161.496C72.9347 159.719 67.5607 157.452 62.238 155.394C57.1949 153.444 54.9952 152.346 50.9078 148.771C47.1058 145.445 42.536 142.34 38.7181 138.976C37.6655 138.049 36.355 135.63 35.3309 134.497C31.1285 128.418 26.4506 122.563 22.6345 116.249C21.0138 113.415 20.0609 108.132 18.8326 104.929C17.2098 100.698 15.6793 96.1371 14.485 91.7915C14.1397 88.5613 14.3055 84.5862 14.3071 81.3761C14.312 71.9878 13.7777 63.0148 16.2516 53.8266C16.9587 51.2003 17.1339 47.8315 18.1124 45.2259C19.8654 40.5577 21.5943 35.6934 23.9121 31.2773C25.5277 28.3024 28.2452 25.5786 30.149 22.7982C33.2048 18.425 36.4384 13.6686 40.4259 10.0725C42.1627 8.50632 46.4069 2.81155 48.6828 3.19742C49.238 3.4503 49.39 4.04833 49.6429 4.63619C48.0037 8.70628 42.8447 14.0651 40.477 18.0289C37.6399 22.7789 34.8384 27.817 32.2514 32.7297C31.1304 34.8585 30.5077 38.0644 29.763 40.4018C28.7769 43.4969 27.6605 46.6836 26.8725 49.8248L26.8963 49.9885C27.0641 51.2039 26.5789 51.554 26.9437 52.0928C27.1792 51.8331 27.0484 51.8814 27.3253 51.8055C30.216 45.0398 33.24 39.5822 37.3562 33.4616C39.4014 30.4202 42.0793 28.0799 44.6096 25.4536C45.3974 24.5985 46.721 23.8433 47.9233 23.9773C48.2418 24.1822 48.5949 24.3973 48.6533 24.8164C48.9538 26.9794 46.1053 29.5772 45.0181 31.2794C43.4835 33.6822 42.1652 35.649 40.8745 38.1551C38.8833 42.0975 36.2237 47.5863 35.0005 51.7469C34.2852 55.0167 33.6356 58.332 33.0327 61.6285C32.5213 64.425 31.5147 67.9156 31.495 70.7132C31.4519 76.8534 32.1418 83.4224 32.8819 89.5057C33.2478 92.5118 35.494 95.9418 36.5125 98.7768C38.5238 104.127 40.6377 109.922 43.419 114.926C44.9993 117.376 46.9865 119.604 48.908 121.828C51.7531 125.12 54.2107 128.825 57.1955 131.999C60.7071 135.734 67.0186 138.447 71.2085 141.58C73.2463 143.103 75.7838 144.454 77.9525 145.769C79.1923 146.384 83.893 147.453 85.578 147.822C88.8061 148.527 92.9203 150.107 96.096 150.581C103.098 151.626 113.131 152.843 120.124 152.29C121.228 152.202 129.269 148.899 131.017 148.254C133.61 147.298 138.937 146.06 140.977 144.94C143.76 143.412 146.696 140.708 149.862 139.013C150.117 138.964 156.658 134.565 156.842 134.29Z" fill="#303030"></path>
<path d="M26.8743 49.8247L26.8982 49.9884C27.0659 51.2038 26.5807 51.5539 26.9455 52.0927C27.181 51.833 27.0502 51.8813 27.3271 51.8055C27.2715 52.2134 26.6871 53.8041 26.3818 54.0466L26.4158 54.302L26.3345 54.2262C26.2565 52.2539 26.4297 51.7496 26.8743 49.8247Z" fill="#303030"></path>
<path d="M165.592 33.0404C167.813 31.3511 169.306 29.6217 171.2 27.6014C174.372 24.217 179.726 25.3725 183.827 26.047V30.6936C182.756 31.626 178.132 39.3275 177.264 40.9523C173.523 47.9492 172.513 56.1716 172.102 63.9764C171.7 75.7057 174.096 87.2937 172.729 99.1734C172.352 102.448 172.769 106.052 172.01 109.317C171.766 110.763 170.17 113.366 169.607 114.765C166.244 123.123 165.108 125.06 158.652 131.146C157.989 132.539 156.188 133.269 156.46 134.174L156.841 134.289C156.657 134.565 150.116 138.963 149.861 139.013L149.28 138.728C147.626 139.81 144.282 140.627 142.415 141.497C137.07 143.985 131.789 145.848 126.013 147.083C123.602 147.598 121.187 148.51 118.654 148.694C114.804 148.972 110.927 148.78 107.068 148.85C103.332 148.888 99.5888 149.172 95.8967 148.701C95.7866 147.8 95.7917 147.044 95.7852 146.143C101.242 144.606 107.348 142.495 112.519 140.138C114.641 139.17 116.8 137.675 118.885 136.577C121.235 135.34 123.559 134.283 125.836 132.899C129.447 130.705 132.163 127.589 135.193 124.663C136.208 123.683 139.094 121.204 139.765 120.195C142.861 115.541 146.841 108.089 148.924 103.04C149.649 101.283 150.405 94.0125 150.972 91.5994C150.899 90.8377 150.809 89.9218 150.443 89.2549C151.401 87.4335 150.72 81.1756 151.804 77.1613C149.238 76.7035 147.956 76.8747 147.317 79.603L146.939 79.3859C146.161 80.1976 145.923 81.1092 145.4 82.1503C144.827 83.3211 143.838 85.0203 143.382 86.076C142.437 88.4296 140.647 91.1018 139.629 93.5649C138.823 95.5163 136.179 96.5152 134.446 97.5441C132.592 98.6444 133.976 98.6045 133.613 99.9093C129.458 103.379 122.936 106.067 117.45 104.9C115.739 104.536 111.203 100.98 110.065 99.6203C110.33 98.9221 110.717 98.0855 111.016 97.3854C112.62 98.2343 117.193 99.4923 119.207 99.3606C126.585 98.8783 133.075 90.6383 138.609 86.1872C139.258 85.6651 142.285 80.8085 143.28 79.5848C140.93 81.5657 137.592 84.1869 134.634 85.1168C127.728 87.2884 126.04 85.6912 120.176 82.9078C119.254 81.7255 116.011 75.6173 116.051 73.9535C116.065 73.3537 116.257 73.1639 116.633 72.7959C118.738 72.1215 122.733 77.4844 123.961 79.0331C125.416 79.55 126.969 79.769 128.513 80.2871C131.35 79.7073 134.349 78.5739 136.592 76.7003C138.541 75.0722 139.873 72.8758 141.15 70.7144C143.744 66.3237 145.685 61.7443 147.496 56.9861C149.924 50.6098 152.215 42.4655 156.883 37.2911C159.762 34.0985 161.318 33.2474 165.592 33.0404Z" fill="#303030"></path>
<path d="M146.939 79.3862C146.925 78.3823 146.522 77.7199 146.373 76.7883C146.257 76.0627 151.552 70.3548 152.368 69.2246C152.082 71.2285 152.176 75.0002 152.252 77.0728L151.804 77.1616C149.239 76.7038 147.957 76.875 147.318 79.6033L146.939 79.3862Z" fill="white"></path>
<path d="M152.254 77.0728C153.484 80.0469 151.464 88.5069 150.974 91.5996C150.902 90.8379 150.811 89.922 150.445 89.2551C151.403 87.4338 150.722 81.1758 151.806 77.1615L152.254 77.0728Z" fill="#303030"></path>
<path d="M149.281 138.728C149.963 138.267 150.666 138.061 151.268 137.647C154.064 135.724 156.201 133.37 158.653 131.146C157.99 132.539 156.189 133.269 156.462 134.174L156.842 134.289C156.658 134.565 150.117 138.963 149.862 139.012L149.281 138.728Z" fill="#303030"></path>
<path d="M162.454 41.7754C162.856 42.0059 162.909 42.084 163.208 42.4427C163.231 43.4997 161.867 44.4476 160.949 45.4664L160.813 45.633L160.629 45.5501C160.735 44.8158 162.032 42.5598 162.454 41.7754Z" fill="white"></path>
<path d="M102.202 0H134.122C136.664 2.05605 149.55 3.18205 147.511 6.7775C145.77 8.37217 136.978 5.4869 134.252 5.44188C129.733 5.36722 125.347 5.62685 120.83 5.8445C117.23 5.72488 113.811 7.29642 110.495 7.92718C103.973 9.16777 100.561 10.98 94.819 13.9457C85.4908 18.7635 78.3592 24.3215 71.4253 32.186C75.4768 30.5772 76.8765 28.6153 80.4241 26.345C83.1224 24.5628 86.3472 23.7022 89.2653 22.5803C94.5334 20.2655 99.2755 20.0139 104.78 19.4285C112.054 18.6552 117.578 20.2289 124.655 21.4276C126.85 21.7995 126.392 23.4047 125.895 24.8829C121.799 25.5203 113.927 24.8331 109.335 25.1998C96.7607 26.2043 86.4234 33.3853 77.0231 41.2514C75.6774 42.4231 73.9699 43.466 72.6764 44.6671C70.0562 47.1005 68.2785 50.4852 66.3591 53.491C65.377 55.4829 63.2031 57.9469 62.5591 60.0552C60.6021 66.4634 57.8661 73.4581 56.8661 80.0474C56.5204 82.326 56.923 85.3164 56.8131 87.794C56.6876 90.62 56.6964 94.2476 57.0404 97.0887C59.7224 103.849 62.7193 111.387 66.3122 117.72C67.5957 119.982 69.504 121.931 70.9272 123.997C72.906 127.018 75.2039 129.293 77.6748 131.843C81.2886 135.572 88.4612 139.503 91.736 143.195C92.0655 144.031 91.9018 145.091 91.1847 145.66C89.6473 146.021 79.2393 140.54 77.2182 139.412C71.6374 136.419 67.7968 131.784 63.3333 127.778C56.6507 121.78 54.2462 115.357 49.5383 107.992C47.3147 104.513 46.6589 100.725 45.3159 96.9695C42.6226 89.4391 42.0839 84.8319 42.2953 76.984L42.4975 67.6122C42.5825 64.743 42.5751 59.1501 43.2378 56.5418C43.9923 53.5718 46.3163 49.3319 47.5392 46.3296C49.5713 41.3403 51.6541 35.7063 54.4 31.0795C55.1638 29.7927 57.6868 27.4438 58.8762 26.2653L65.196 20.01C67.7982 17.4303 71.23 13.4808 74.1265 11.3933C76.6409 9.78968 79.7278 8.59091 82.3698 7.27949C87.5253 4.72033 91.9388 1.80304 97.7992 1.22327C98.744 1.1298 101.395 0.527992 102.202 0Z" fill="#303030"></path>
<path d="M147.317 79.6032C147.956 76.8749 149.238 76.7036 151.804 77.1614C150.72 81.1758 151.401 87.4337 150.443 89.255C150.083 90.1844 149.997 91.2577 149.8 92.2343C149.531 93.5743 149.009 94.8127 148.376 96.0185C147.257 98.1514 142.626 106.322 140.628 106.898C140.113 107.046 139.773 106.937 139.323 106.687C137.856 104.429 143.079 98.6057 142.848 95.1823C142.745 93.6484 143.65 88.5522 143.923 86.9298L143.382 86.0762C143.838 85.0204 144.827 83.3213 145.4 82.1504C145.923 81.1093 146.161 80.1978 146.939 79.3861L147.317 79.6032Z" fill="#303030"></path>
<path d="M145.401 82.1504L146.062 82.8397C145.407 84.1737 144.71 85.6868 143.923 86.9297L143.383 86.0762C143.838 85.0204 144.827 83.3212 145.401 82.1504Z" fill="#303030"></path>
<path d="M146.941 79.3862L147.319 79.6033C147.01 80.9205 146.742 81.6243 146.064 82.8399L145.402 82.1505C145.925 81.1094 146.163 80.1979 146.941 79.3862Z" fill="#303030"></path>
<path d="M160.566 139.105C161.525 138.575 162.08 138.196 162.967 137.568L162.955 139.812C162.175 139.6 161.347 139.337 160.566 139.105Z" fill="#303030"></path>
</g>
<defs>
<clipPath id="clip0_58_5845">
<rect width="183.828" height="181" fill="white"></rect>
</clipPath>
</defs>
</svg>